<?xml version="1.0" encoding="utf-8"?>
<!-- Generator: Adobe Illustrator 19.0.0, SVG Export Plug-In . SVG Version: 6.00 Build 0)  -->
<svg version="1.1" id="Layer_1" xmlns="http://www.w3.org/2000/svg" xmlns:xlink="http://www.w3.org/1999/xlink" x="0px" y="0px"
	 viewBox="-29 127 240 48" style="enable-background:new -29 127 240 48;" xml:space="preserve">
<style type="text/css">
	.st0{fill:#F15F22;}
	.st1{font-family:'FuturaLT-Heavy';}
	.st2{font-size:23px;}
	.st3{font-family:'FuturaLT';}
	.st4{font-size:13.1009px;}
</style>
<g id="XMLID_11_">
	<polygon id="XMLID_9_" class="st0" points="24.2,158.7 0.7,147.2 0.7,141.6 24.2,153.2 	"/>
	<polygon id="XMLID_8_" class="st0" points="-22.8,158.7 0.7,147.2 0.7,141.6 -22.8,153.2 	"/>
	<polygon id="XMLID_7_" class="st0" points="24.2,166.2 0.7,154.7 0.7,149.1 24.2,160.7 	"/>
	<polygon id="XMLID_6_" class="st0" points="24.2,173.7 0.7,162.2 0.7,156.6 24.2,168.2 	"/>
	<g id="XMLID_14_">
		<polygon id="XMLID_5_" class="st0" points="0.7,139.5 0.7,139.8 6,142.4 24.2,133.5 24.2,128 		"/>
		<g id="XMLID_17_">
			<polygon id="XMLID_4_" class="st0" points="15.7,147.2 21.3,149.9 24.2,148.5 24.2,143 			"/>
		</g>
		<g id="XMLID_15_">
			<polygon id="XMLID_10_" class="st0" points="8,143.4 13.7,146.2 24.2,141 24.2,135.5 			"/>
		</g>
	</g>
	<polygon id="XMLID_2_" class="st0" points="-9.3,142.4 -14.6,139.8 -14.6,149.4 -9.3,151.9 	"/>
	<polygon id="XMLID_3_" class="st0" points="-22.8,160.6 -22.8,171.1 -17.6,173.7 -17.6,158 	"/>
</g>
<text id="XMLID_1_" transform="matrix(1 0 0 1 29.311 154.2959)" class="st0 st1 st2">Welcome Home</text>
<text id="XMLID_18_" transform="matrix(1 0 0 1 32.9961 169.5088)" class="st0 st3 st4">luxury service apartment</text>
</svg>
