<?xml version="1.0" encoding="utf-8"?>
<!-- Generator: Adobe Illustrator 19.0.0, SVG Export Plug-In . SVG Version: 6.00 Build 0)  -->
<svg version="1.1" id="Layer_1" xmlns="http://www.w3.org/2000/svg" xmlns:xlink="http://www.w3.org/1999/xlink" x="0px" y="0px"
	 viewBox="-24 132 250 37" style="enable-background:new -24 132 250 37;" xml:space="preserve">
<style type="text/css">
	.st0{fill:#F15F22;}
	.st1{font-family:'FuturaLT-Heavy';}
	.st2{font-size:19.9424px;}
	.st3{font-family:'FuturaLT';}
	.st4{font-size:11.3593px;}
</style>
<g id="XMLID_11_">
	<polygon id="XMLID_9_" class="st0" points="17.2,157 0,148.6 0,144.5 17.2,153 	"/>
	<polygon id="XMLID_8_" class="st0" points="-17.2,157 0,148.6 0,144.5 -17.2,153 	"/>
	<polygon id="XMLID_7_" class="st0" points="17.2,162.5 0,154.1 0,150 17.2,158.5 	"/>
	<polygon id="XMLID_6_" class="st0" points="17.2,168 0,159.6 0,155.5 17.2,164 	"/>
	<g id="XMLID_14_">
		<polygon id="XMLID_5_" class="st0" points="0,143 0,143.2 3.9,145.1 17.2,138.6 17.2,134.6 		"/>
		<g id="XMLID_17_">
			<polygon id="XMLID_4_" class="st0" points="11,148.6 15.1,150.6 17.2,149.6 17.2,145.5 			"/>
		</g>
		<g id="XMLID_15_">
			<polygon id="XMLID_10_" class="st0" points="5.3,145.8 9.5,147.9 17.2,144.1 17.2,140.1 			"/>
		</g>
	</g>
	<polygon id="XMLID_2_" class="st0" points="-7.3,145.1 -11.2,143.2 -11.2,150.2 -7.3,152.1 	"/>
	<polygon id="XMLID_3_" class="st0" points="-17.2,158.4 -17.2,166.1 -13.4,168 -13.4,156.5 	"/>
</g>
<text id="XMLID_1_" transform="matrix(1 0 0 1 40.9755 151.2675)" class="st0 st1 st2">Welcome Home</text>
<text id="XMLID_18_" transform="matrix(1 0 0 1 44.1708 164.459)" class="st0 st3 st4">luxury service apartment</text>
</svg>
